<?xml version="1.0" encoding="UTF-8"?>
<svg width="212px" height="212px" viewBox="0 0 212 212" version="1.1" xmlns="http://www.w3.org/2000/svg" xmlns:xlink="http://www.w3.org/1999/xlink">
    <!-- Generator: Sketch 64 (93537) - https://sketch.com -->
    <title>baby</title>
    <desc>Created with Sketch.</desc>
    <defs>
        <path d="M32.6973594,1.30410345 C37.2238281,-1.34900717 43.044027,0.169649585 45.6971377,4.69611826 C48.3028713,9.14175714 46.884499,14.8353342 42.5447283,17.5507613 L42.3051229,17.6958965 L41.5650565,18.1296736 C30.0498523,24.8791095 15.7336472,24.6513012 4.43902119,17.538901 C-0.000741242951,14.7431141 -1.33344675,8.8775425 1.46234012,4.43778007 C4.2072945,0.0787405907 9.91141991,-1.28519873 14.3199052,1.31268976 L14.5634611,1.461099 C19.7448378,4.72389183 26.2834772,4.89419589 31.6184238,1.93125964 L31.957293,1.73788046 L32.6973594,1.30410345 Z" id="path-1"></path>
    </defs>
    <g id="baby" stroke="none" stroke-width="1" fill="none" fill-rule="evenodd">
        <g id="Group-24-Copy-2" transform="translate(10.000000, 27.000000)">
            <rect id="Rectangle-Copy-51" fill="#FFC6B7" x="0" y="73.8928891" width="193" height="40" rx="20"></rect>
            <circle id="Oval-Copy-13" fill="#FF9600" cx="105" cy="25" r="11"></circle>
            <circle id="Oval-Copy-12" fill="#FF9600" cx="89" cy="14" r="14"></circle>
            <path d="M74,23.8928891 L117,23.8928891 C144.614237,23.8928891 167,46.2786516 167,73.8928891 L167,102.892889 C167,130.507127 144.614237,152.892889 117,152.892889 L74,152.892889 C46.3857625,152.892889 24,130.507127 24,102.892889 L24,73.8928891 C24,46.2786516 46.3857625,23.8928891 74,23.8928891 Z" id="Rectangle-Copy-32" fill="#FFC6B7"></path>
            <g id="Group-24-Copy" transform="translate(48.000000, 44.892889)">
                <rect id="Rectangle-Copy-27" fill="#FFFFFF" transform="translate(69.842298, 26.459998) rotate(-360.000000) translate(-69.842298, -26.459998) " x="49.0522992" y="0" width="41.579997" height="52.9199962" rx="20.7899985"></rect>
                <rect id="Rectangle-Copy-26" fill="#FFFFFF" transform="translate(22.589998, 26.591918) rotate(-360.000000) translate(-22.589998, -26.591918) " x="1.79999995" y="0.131920088" width="41.579997" height="52.9199962" rx="20.7899985"></rect>
                <rect id="Mask-Copy-6" fill="#363636" transform="translate(63.108741, 27.406135) rotate(-360.000000) translate(-63.108741, -27.406135) " x="51.7687418" y="10.396136" width="22.6799984" height="34.0199976" rx="11.3399992"></rect>
                <path d="M50.254667,21.6009113 C51.2106358,22.0377302 52.273494,22.2811567 53.3932075,22.2811567 C57.5684799,22.2811567 60.953207,18.8964296 60.953207,14.7211572 C60.953207,11.9209368 59.4307731,9.47629995 57.1684742,8.16981544 L51.7093599,13.591954 L50.254667,21.6009113 Z" id="Path-Copy" fill="#FFFFFF" transform="translate(55.603937, 15.225486) rotate(2.000000) translate(-55.603937, -15.225486) "></path>
                <rect id="Mask-Copy-5" fill="#363636" transform="translate(29.043507, 28.107703) rotate(-360.000000) translate(-29.043507, -28.107703) " x="17.7035083" y="11.0977038" width="22.6799984" height="34.0199976" rx="11.3399992"></rect>
                <circle id="Oval-Copy-8" fill="#FFFFFF" transform="translate(19.412882, 13.457030) rotate(2.000000) translate(-19.412882, -13.457030) " cx="19.4128816" cy="13.4570303" r="7.55999946"></circle>
                <path d="M86.020295,37.9433426 L86.020295,37.9433426 L86.020295,37.9433426 L86.020295,72.1433417 L51.8202959,59.1438447 L54.8434029,55.9872807 C63.316297,47.1403453 74.1283625,40.8827543 86.020295,37.9433426 Z" id="Rectangle-Copy-3" fill="#FFC6B7" transform="translate(68.920295, 55.043342) rotate(-337.000000) translate(-68.920295, -55.043342) "></path>
                <path d="M39.599999,37.9433426 L39.599999,37.9433426 L39.599999,37.9433426 L39.599999,72.1433417 L5.39999986,59.1438447 L8.42310684,55.9872807 C16.8960009,47.1403453 27.7080664,40.8827543 39.599999,37.9433426 Z" id="Rectangle-Copy-2" fill="#FFC6B7" transform="translate(22.499999, 55.043342) scale(-1, 1) rotate(-337.000000) translate(-22.499999, -55.043342) "></path>
            </g>
            <g id="Rectangle-Copy-56" transform="translate(71.498759, 105.892889)">
                <mask id="mask-2" fill="white">
                    <use xlink:href="#path-1"></use>
                </mask>
                <use id="Mask" fill="#9A3333" fill-rule="nonzero" xlink:href="#path-1"></use>
                <rect fill="#FFFFFF" mask="url(#mask-2)" transform="translate(13.001241, 1.500000) rotate(-360.000000) translate(-13.001241, -1.500000) " x="7.50124112" y="-6" width="11" height="15" rx="3"></rect>
            </g>
            <path d="M94.3499988,107.14408 C98.574977,107.14408 101.999999,103.619975 101.999999,99.2727724 C101.999999,94.9255698 94.3499988,84.6440798 94.3499988,84.6440798 C94.3499988,84.6440798 86.699999,94.9255698 86.699999,99.2727724 C86.699999,103.619975 90.1250205,107.14408 94.3499988,107.14408 Z" id="Oval-Copy-22" fill="#EE9583"></path>
            <path d="M111.190283,125.046309 L110.816358,125.234544 C100.394304,130.384103 88.0944579,130.141585 77.8775793,124.570015 C79.1170736,123.458547 80.4895789,122.459723 81.9876179,121.59483 C91.6395108,116.022307 103.500707,117.742721 111.190283,125.046309 Z" id="Combined-Shape" fill="#E15F3C" fill-rule="nonzero"></path>
        </g>
    </g>
</svg>