<?xml version="1.0" encoding="UTF-8"?>
<svg xmlns="http://www.w3.org/2000/svg" xmlns:xlink="http://www.w3.org/1999/xlink" width="64px" height="64px" viewBox="0 0 64 64" version="1.1">
<g id="surface1">
<path style=" stroke:none;fill-rule:evenodd;fill:rgb(31.372549%,78.431373%,0%);fill-opacity:1;" d="M 12.183594 0 L 51.824219 0 C 58.546875 0 63.996094 5.449219 63.996094 12.179688 L 63.996094 51.820312 C 63.996094 58.542969 58.546875 64 51.816406 64 L 12.183594 64 C 5.453125 63.992188 0.00390625 58.542969 0.00390625 51.8125 L 0.00390625 12.179688 C 0.00390625 5.449219 5.453125 0 12.183594 0 Z M 12.183594 0 "/>
<path style=" stroke:none;fill-rule:evenodd;fill:rgb(55.686275%,87.843137%,0%);fill-opacity:1;" d="M 64 41.339844 L 64 22.828125 C 63.277344 21.074219 62.21875 19.476562 60.882812 18.128906 C 61 16.140625 60.554688 14.128906 59.527344 12.335938 C 58.851562 11.160156 57.21875 10.992188 56.308594 12.003906 L 54.238281 14.296875 C 54.226562 14.292969 54.214844 14.292969 54.199219 14.285156 C 54.46875 12.191406 54.113281 10.03125 53.089844 8.097656 C 52.449219 6.898438 51.070312 6.6875 50.121094 7.660156 L 40.183594 17.730469 C 40.070312 17.835938 39.953125 17.949219 39.839844 18.0625 C 39.832031 18.066406 39.820312 18.074219 39.816406 18.078125 C 35.496094 21.992188 28.765625 22.152344 24.652344 18.5625 C 24.394531 18.277344 24.128906 18.007812 23.847656 17.75 L 13.890625 7.667969 C 12.941406 6.691406 11.5625 6.90625 10.925781 8.105469 C 9.90625 10.03125 9.542969 12.179688 9.804688 14.261719 C 9.785156 14.265625 9.769531 14.265625 9.75 14.273438 L 7.707031 12.003906 C 6.792969 10.992188 5.160156 11.160156 4.480469 12.335938 C 3.46875 14.09375 3.023438 16.0625 3.117188 18.011719 C 1.800781 19.308594 0.742188 20.847656 0 22.542969 L 0 41.632812 C 2.242188 46.75 7.355469 50.332031 13.296875 50.332031 L 13.9375 50.332031 C 19.828125 50.332031 24.902344 46.8125 27.171875 41.765625 C 29.351562 41.753906 30.933594 41.746094 31.914062 41.746094 C 34.039062 41.738281 35.695312 41.738281 36.882812 41.738281 C 39.144531 46.800781 44.234375 50.332031 50.132812 50.332031 L 50.582031 50.332031 C 56.636719 50.332031 61.824219 46.613281 64 41.339844 Z M 64 41.339844 "/>
<path style=" stroke:none;fill-rule:evenodd;fill:rgb(100%,100%,100%);fill-opacity:1;" d="M 14.199219 19 C 19.773438 19 24.296875 23.515625 24.296875 29.097656 L 24.296875 35.078125 C 24.296875 40.652344 19.777344 45.175781 14.199219 45.175781 C 8.625 45.175781 4.097656 40.660156 4.097656 35.078125 L 4.097656 29.097656 C 4.097656 23.515625 8.625 19 14.199219 19 Z M 49.675781 19 C 55.25 19 59.777344 23.515625 59.777344 29.097656 L 59.777344 35.078125 C 59.777344 40.652344 55.257812 45.175781 49.675781 45.175781 C 44.101562 45.175781 39.578125 40.660156 39.578125 35.078125 L 39.578125 29.097656 C 39.578125 23.515625 44.097656 19 49.675781 19 Z M 49.675781 19 "/>
<path style=" stroke:none;fill-rule:evenodd;fill:rgb(29.411765%,29.411765%,29.411765%);fill-opacity:1;" d="M 15.753906 24.796875 C 18.398438 24.796875 20.546875 26.941406 20.546875 29.589844 L 20.546875 34.710938 C 20.546875 37.351562 18.40625 39.503906 15.753906 39.503906 C 13.109375 39.503906 10.960938 37.359375 10.960938 34.710938 L 10.960938 29.589844 C 10.960938 26.941406 13.109375 24.796875 15.753906 24.796875 Z M 15.753906 24.796875 "/>
<path style=" stroke:none;fill-rule:evenodd;fill:rgb(95.686275%,50.196078%,0%);fill-opacity:1;" d="M 32.003906 36.417969 C 35.035156 36.417969 37.492188 38.871094 37.492188 41.902344 L 37.492188 43.808594 C 37.492188 46.839844 35.035156 49.296875 32.003906 49.296875 C 28.972656 49.296875 26.515625 46.839844 26.515625 43.808594 L 26.515625 41.902344 C 26.515625 38.871094 28.972656 36.417969 32.003906 36.417969 Z M 32.003906 36.417969 "/>
<path style=" stroke:none;fill-rule:nonzero;fill:rgb(100%,76.078431%,0%);fill-opacity:1;" d="M 24.429688 42.429688 C 25.085938 38.929688 28.328125 36.402344 32.210938 36.402344 C 35.742188 36.402344 38.933594 38.992188 39.578125 42.429688 L 39.578125 42.710938 C 39.578125 42.929688 39.503906 43.015625 39.300781 42.992188 L 32.214844 44.253906 L 31.796875 44.253906 L 24.703125 42.984375 C 24.503906 43.007812 24.429688 42.921875 24.429688 42.703125 Z M 24.429688 42.429688 "/>
<path style=" stroke:none;fill-rule:evenodd;fill:rgb(100%,90.588235%,27.843137%);fill-opacity:1;" d="M 30.839844 37.617188 C 31.210938 37.527344 31.589844 37.480469 31.972656 37.480469 C 32.378906 37.480469 32.789062 37.527344 33.195312 37.636719 C 34.019531 37.847656 34.597656 38.589844 34.597656 39.441406 C 34.597656 39.769531 34.46875 40.085938 34.234375 40.316406 C 34.003906 40.546875 33.6875 40.679688 33.359375 40.679688 L 30.648438 40.679688 C 30.320312 40.679688 30.003906 40.546875 29.773438 40.316406 C 29.539062 40.085938 29.410156 39.769531 29.410156 39.441406 C 29.402344 38.578125 29.996094 37.824219 30.839844 37.617188 Z M 30.839844 37.617188 "/>
<path style=" stroke:none;fill-rule:evenodd;fill:rgb(29.411765%,29.411765%,29.411765%);fill-opacity:1;" d="M 48.121094 24.796875 C 50.765625 24.796875 52.914062 26.941406 52.914062 29.589844 L 52.914062 34.710938 C 52.914062 37.351562 50.769531 39.503906 48.121094 39.503906 C 45.476562 39.503906 43.328125 37.359375 43.328125 34.710938 L 43.328125 29.589844 C 43.332031 26.941406 45.476562 24.796875 48.121094 24.796875 Z M 48.121094 24.796875 "/>
<path style=" stroke:none;fill-rule:nonzero;fill:rgb(100%,100%,100%);fill-opacity:1;" d="M 11.703125 30.609375 C 13.414062 30.609375 14.796875 29.230469 14.796875 27.527344 C 14.796875 25.828125 13.414062 24.449219 11.703125 24.449219 C 9.996094 24.449219 8.613281 25.828125 8.613281 27.527344 C 8.613281 29.230469 9.996094 30.609375 11.703125 30.609375 Z M 43.601562 30.609375 C 45.308594 30.609375 46.695312 29.230469 46.695312 27.527344 C 46.695312 25.828125 45.308594 24.449219 43.601562 24.449219 C 41.894531 24.449219 40.507812 25.828125 40.507812 27.527344 C 40.507812 29.230469 41.894531 30.609375 43.601562 30.609375 Z M 43.601562 30.609375 "/>
</g>
</svg>
